<svg width="60" height="60" viewBox="0 0 60 60" fill="none" xmlns="http://www.w3.org/2000/svg">
<g id="Frame" clip-path="url(#clip0_163_61)">
<path id="Vector" fill-rule="evenodd" clip-rule="evenodd" d="M49.11 42.96C48.4145 43.6554 47.4859 43.9595 46.5764 43.8982C46.6364 44.8077 46.3336 45.7363 45.6382 46.4318C44.3605 47.7095 42.2877 47.7095 41.01 46.4318C40.5723 45.9941 40.2955 45.4609 40.1577 44.9004L40.1378 44.9272C40.0492 45.0465 39.9601 45.1662 39.8523 45.2741C38.5746 46.5518 36.5018 46.5518 35.2241 45.2741C34.5286 44.5786 34.2245 43.65 34.2859 42.7404C33.3764 42.8004 32.4477 42.4977 31.7523 41.8022C31.6653 41.7152 31.5941 41.6207 31.5226 41.5257L31.4782 41.4668C30.3764 41.7763 29.1477 41.5118 28.2805 40.6445C28.2441 40.6081 28.2087 40.5712 28.1745 40.5335C24.0115 42.4481 19.5196 46.2667 17.6182 53.8718C17.6182 53.8718 14.2268 52.4645 11.0468 49.2845C7.86682 46.1045 6.45955 42.7132 6.45955 42.7132C14.6636 40.6618 18.4608 35.5955 20.2148 31.1798C19.3664 31.1936 18.5152 30.8792 17.8664 30.2304C16.8573 29.22 16.6582 27.7186 17.2445 26.5009C16.6241 26.3822 16.0323 26.0822 15.5523 25.6022C14.2745 24.3245 14.2745 22.2518 15.5523 20.9741C15.6601 20.8662 15.7799 20.7772 15.8993 20.6884L15.9259 20.6686C15.3655 20.5309 14.8323 20.2541 14.3945 19.8163C13.1168 18.5386 13.1168 16.4659 14.3945 15.1882C14.8745 14.7082 15.4664 14.4082 16.0868 14.2895C15.5005 13.0704 15.6995 11.5691 16.7114 10.5613C17.9891 9.28361 20.0618 9.28361 21.3395 10.5613C21.4474 10.6692 21.5365 10.7889 21.6252 10.9083L21.645 10.935C21.7827 10.3745 22.0595 9.84134 22.4973 9.40361C23.5077 8.39452 25.0091 8.19543 26.2268 8.78179C26.3455 8.16134 26.6455 7.56952 27.1255 7.08952C28.4032 5.81179 30.4759 5.81179 31.7536 7.08952C32.2336 7.56952 32.5323 8.16134 32.6523 8.78179C33.87 8.19407 35.3714 8.39316 36.3818 9.40361C37.6596 8.12588 39.7323 8.12588 41.01 9.40361C41.7055 10.0991 42.0095 11.0277 41.9482 11.9372C42.8577 11.8772 43.7864 12.18 44.4818 12.8754C44.9618 13.3554 45.2605 13.9472 45.3805 14.5677C46.5982 13.98 48.0995 14.1791 49.11 15.1895C50.3877 16.4672 50.3877 18.54 49.11 19.8177C49.0021 19.9256 48.8824 20.0146 48.763 20.1034L48.7364 20.1232C49.2968 20.2609 49.83 20.5377 50.2677 20.9754C51.2768 21.9859 51.4759 23.4872 50.8896 24.705C51.51 24.8236 52.1018 25.1236 52.5818 25.6036C53.8596 26.8813 53.8596 28.9541 52.5818 30.2318C53.8596 31.5095 53.8596 33.5822 52.5818 34.86C52.1577 35.2841 51.6436 35.5527 51.1036 35.6959C50.9618 36.2359 50.6918 36.75 50.2677 37.1741C49.83 37.6118 49.2968 37.8886 48.7364 38.0263L48.763 38.0461C48.8824 38.1349 49.0021 38.2239 49.11 38.3318C50.3877 39.6095 50.3877 41.6822 49.11 42.96Z" fill="#D9D9D9"/>
<g id="Mask group">
<mask id="mask0_163_61" style="mask-type:luminance" maskUnits="userSpaceOnUse" x="1" y="0" width="59" height="61">
<g id="Group">
<path id="Vector_2" d="M59.6414 0.676697H1.005V60.6767H59.6414V0.676697Z" fill="white"/>
<path id="Vector_3" fill-rule="evenodd" clip-rule="evenodd" d="M49.11 42.96C48.4145 43.6554 47.4859 43.9595 46.5764 43.8982C46.6364 44.8077 46.3336 45.7363 45.6382 46.4318C44.3605 47.7095 42.2877 47.7095 41.01 46.4318C40.5723 45.9941 40.2955 45.4609 40.1577 44.9004L40.1378 44.9272C40.0492 45.0465 39.9601 45.1662 39.8523 45.2741C38.5746 46.5518 36.5018 46.5518 35.2241 45.2741C34.5286 44.5786 34.2245 43.65 34.2859 42.7404C33.3764 42.8004 32.4477 42.4977 31.7523 41.8022C31.6653 41.7152 31.5941 41.6207 31.5226 41.5257L31.4782 41.4668C30.3764 41.7763 29.1477 41.5118 28.2805 40.6445C28.2441 40.6081 28.2087 40.5712 28.1745 40.5335C24.0115 42.4481 19.5196 46.2667 17.6182 53.8718C17.6182 53.8718 14.2268 52.4645 11.0468 49.2845C7.86682 46.1045 6.45955 42.7132 6.45955 42.7132C14.6636 40.6618 18.4608 35.5955 20.2148 31.1798C19.3664 31.1936 18.5152 30.8792 17.8664 30.2304C16.8573 29.22 16.6582 27.7186 17.2445 26.5009C16.6241 26.3822 16.0323 26.0822 15.5523 25.6022C14.2745 24.3245 14.2745 22.2518 15.5523 20.9741C15.6601 20.8662 15.7799 20.7772 15.8993 20.6884L15.9259 20.6686C15.3655 20.5309 14.8323 20.2541 14.3945 19.8163C13.1168 18.5386 13.1168 16.4659 14.3945 15.1882C14.8745 14.7082 15.4664 14.4082 16.0868 14.2895C15.5005 13.0704 15.6995 11.5691 16.7114 10.5613C17.9891 9.28361 20.0618 9.28361 21.3395 10.5613C21.4474 10.6692 21.5365 10.7889 21.6252 10.9083L21.645 10.935C21.7827 10.3745 22.0595 9.84134 22.4973 9.40361C23.5077 8.39452 25.0091 8.19543 26.2268 8.78179C26.3455 8.16134 26.6455 7.56952 27.1255 7.08952C28.4032 5.81179 30.4759 5.81179 31.7536 7.08952C32.2336 7.56952 32.5323 8.16134 32.6523 8.78179C33.87 8.19407 35.3714 8.39316 36.3818 9.40361C37.6596 8.12588 39.7323 8.12588 41.01 9.40361C41.7055 10.0991 42.0095 11.0277 41.9482 11.9372C42.8577 11.8772 43.7864 12.18 44.4818 12.8754C44.9618 13.3554 45.2605 13.9472 45.3805 14.5677C46.5982 13.98 48.0995 14.1791 49.11 15.1895C50.3877 16.4672 50.3877 18.54 49.11 19.8177C49.0021 19.9256 48.8824 20.0146 48.763 20.1034L48.7364 20.1232C49.2968 20.2609 49.83 20.5377 50.2677 20.9754C51.2768 21.9859 51.4759 23.4872 50.8896 24.705C51.51 24.8236 52.1018 25.1236 52.5818 25.6036C53.8596 26.8813 53.8596 28.9541 52.5818 30.2318C53.8596 31.5095 53.8596 33.5822 52.5818 34.86C52.1577 35.2841 51.6436 35.5527 51.1036 35.6959C50.9618 36.2359 50.6918 36.75 50.2677 37.1741C49.83 37.6118 49.2968 37.8886 48.7364 38.0263L48.763 38.0461C48.8824 38.1349 49.0021 38.2239 49.11 38.3318C50.3877 39.6095 50.3877 41.6822 49.11 42.96Z" fill="black"/>
</g>
</mask>
<g mask="url(#mask0_163_61)">
<path id="Vector_4" d="M46.5764 43.8982L46.9436 38.456C45.3741 38.3501 43.8355 38.9269 42.7223 40.0384C41.6092 41.1498 41.0301 42.6877 41.1337 44.2572L46.5764 43.8982ZM40.1577 44.9004L45.4546 43.5987C44.9506 41.5477 43.3079 39.972 41.2377 39.5539C39.1675 39.1357 37.042 39.9503 35.7813 41.6448L40.1577 44.9004ZM40.1378 44.9272L35.7615 41.6715L35.7604 41.673L40.1378 44.9272ZM34.2859 42.7404L39.7281 43.1075C39.834 41.5381 39.2572 39.9994 38.1457 38.8864C37.0343 37.7733 35.4964 37.1941 33.9269 37.2978L34.2859 42.7404ZM31.5226 41.5257L35.8816 38.2467L35.875 38.238L31.5226 41.5257ZM31.4782 41.4668L35.8305 38.1791C34.4772 36.3875 32.1644 35.6084 30.0029 36.2156L31.4782 41.4668ZM28.1745 40.5335L32.2057 36.8591C30.6056 35.1037 28.0534 34.5855 25.8955 35.5779L28.1745 40.5335ZM17.6182 53.8718L15.5276 58.9098C16.9938 59.5182 18.6522 59.4577 20.0701 58.7442C21.4881 58.0306 22.5248 56.7348 22.9099 55.1948L17.6182 53.8718ZM6.45955 42.7132L5.13642 37.4216C3.59649 37.8065 2.30068 38.8433 1.58716 40.2612C0.873621 41.6793 0.813156 43.3376 1.42154 44.8038L6.45955 42.7132ZM20.2148 31.1798L25.284 33.1935C25.9571 31.499 25.7392 29.5804 24.7031 28.0801C23.667 26.58 21.9498 25.6966 20.1269 25.7259L20.2148 31.1798ZM17.8664 30.2304L14.0069 34.0848L14.0095 34.0874L17.8664 30.2304ZM17.2446 26.5009L22.159 28.8674C22.894 27.3412 22.878 25.5603 22.1161 24.0473C21.3541 22.5345 19.9327 21.4616 18.2689 21.1434L17.2446 26.5009ZM15.8993 20.6884L19.1535 25.0659L19.1547 25.065L15.8993 20.6884ZM15.9259 20.6686L19.1813 25.0452C20.8761 23.7845 21.6907 21.659 21.2725 19.5888C20.8544 17.5185 19.2787 15.8757 17.2276 15.3717L15.9259 20.6686ZM16.0868 14.2895L17.1112 19.647C18.7746 19.329 20.1957 18.2564 20.9579 16.7441C21.7199 15.2318 21.7364 13.4514 21.0023 11.9253L16.0868 14.2895ZM16.7114 10.5614L20.5605 14.4262L20.5683 14.4183L16.7114 10.5614ZM21.6252 10.9083L17.2477 14.1626C17.2523 14.1687 17.257 14.1749 17.2616 14.1811L21.6252 10.9083ZM21.6252 10.9083L26.0018 7.65299C25.9975 7.6472 25.9931 7.64142 25.9889 7.63563L21.6252 10.9083ZM21.645 10.935L17.2684 14.1904C18.529 15.885 20.6545 16.6998 22.7249 16.2815C24.7951 15.8634 26.4379 14.2878 26.9419 12.2367L21.645 10.935ZM22.4973 9.40363L18.643 5.54407L18.6404 5.54669L22.4973 9.40363ZM26.2268 8.78181L23.8604 13.6962C25.3866 14.4312 27.1675 14.4153 28.6803 13.6534C30.1932 12.8915 31.2661 11.4699 31.5843 9.8062L26.2268 8.78181ZM32.6523 8.78181L27.297 9.81758C27.6184 11.4795 28.6932 12.898 30.2062 13.6571C31.7191 14.4162 33.4987 14.4299 35.0232 13.6942L32.6523 8.78181ZM36.3818 9.40363L32.5249 13.2606C33.5478 14.2835 34.9351 14.8582 36.3818 14.8582C37.8285 14.8582 39.2159 14.2835 40.2387 13.2606L36.3818 9.40363ZM41.9482 11.9373L36.5061 11.5701C36.4001 13.1395 36.9769 14.6782 38.0884 15.7913C39.1998 16.9044 40.7377 17.4836 42.3072 17.3799L41.9482 11.9373ZM45.3805 14.5677L40.0252 15.6035C40.3466 17.2654 41.4214 18.6839 42.9344 19.443C44.4473 20.2021 46.2269 20.2158 47.7514 19.4801L45.3805 14.5677ZM48.7364 20.1232L45.4814 15.7463C43.7865 17.0067 42.9717 19.1324 43.3897 21.2028C43.8078 23.2732 45.3836 24.9161 47.4346 25.4201L48.7364 20.1232ZM50.2677 20.9754L54.1272 17.1211L54.1246 17.1185L50.2677 20.9754ZM50.8896 24.705L45.9751 22.3385C45.2401 23.8647 45.2561 25.6456 46.018 27.1584C46.78 28.6714 48.2014 29.7443 49.8652 30.0624L50.8896 24.705ZM52.5818 30.2318L48.7249 26.3749C46.5948 28.505 46.5948 31.9586 48.7249 34.0887L52.5818 30.2318ZM51.1036 35.6959L49.7056 30.4235C47.8077 30.9267 46.3268 32.4113 45.828 34.3103L51.1036 35.6959ZM48.7364 38.0264L47.4346 32.7294C45.3836 33.2334 43.8079 34.8762 43.3898 36.9466C42.9716 39.0169 43.7864 41.1425 45.4811 42.4029L48.7364 38.0264ZM48.763 38.0461L45.5077 42.4227C45.5828 42.4786 45.6593 42.5326 45.7373 42.5846L48.763 38.0461ZM48.763 38.0461L52.0173 33.6687C51.9424 33.6131 51.8662 33.5594 51.7886 33.5077L48.763 38.0461ZM46.2091 49.3403C48.5721 49.4997 51.0775 48.7064 52.9669 46.8169L45.2531 39.1031C45.7516 38.6045 46.3998 38.4194 46.9436 38.456L46.2091 49.3403ZM49.4951 50.2887C51.3885 48.3954 52.1742 45.8903 52.0191 43.5391L41.1337 44.2572C41.0985 43.7251 41.2788 43.0773 41.7813 42.5749L49.4951 50.2887ZM37.1531 50.2887C40.561 53.6966 46.0872 53.6966 49.4951 50.2887L41.7813 42.5749C42.6337 41.7225 44.0145 41.7225 44.8669 42.5749L37.1531 50.2887ZM34.8608 46.2022C35.2128 47.6344 35.9446 49.0803 37.1531 50.2887L44.8669 42.5749C45.1999 42.9079 45.3781 43.2874 45.4546 43.5987L34.8608 46.2022ZM44.5143 48.1827L44.5342 48.1561L35.7813 41.6448L35.7615 41.6715L44.5143 48.1827ZM43.7092 49.1311C44.1449 48.6954 44.4627 48.2521 44.5154 48.1812L35.7604 41.673C35.7357 41.7061 35.7286 41.7157 35.724 41.7217C35.7211 41.7255 35.7307 41.7127 35.7485 41.6904C35.7836 41.6468 35.8684 41.5441 35.9954 41.417L43.7092 49.1311ZM31.3672 49.131C34.7751 52.5389 40.3013 52.539 43.7092 49.1311L35.9954 41.417C36.8478 40.5646 38.2286 40.5648 39.081 41.4172L31.3672 49.131ZM28.8438 42.3734C28.6844 44.7361 29.4777 47.2415 31.3672 49.131L39.081 41.4172C39.5796 41.9157 39.7647 42.5639 39.7281 43.1075L28.8438 42.3734ZM27.8954 45.6592C29.7886 47.5526 32.2938 48.3383 34.645 48.1831L33.9269 37.2978C34.459 37.2626 35.1068 37.4429 35.6092 37.9454L27.8954 45.6592ZM27.1636 44.8046C27.2028 44.8565 27.4943 45.2581 27.8954 45.6592L35.6092 37.9454C35.7375 38.0738 35.8266 38.1799 35.8695 38.2329C35.9041 38.2756 35.9269 38.307 35.8816 38.2467L27.1636 44.8046ZM27.1259 44.7545L27.1703 44.8134L35.875 38.238L35.8305 38.1791L27.1259 44.7545ZM24.4236 44.5014C26.7736 46.8515 30.0761 47.5264 32.9535 46.718L30.0029 36.2156C30.6766 36.0263 31.5218 36.1721 32.1374 36.7876L24.4236 44.5014ZM24.1433 44.208C24.2341 44.3077 24.3277 44.4054 24.4236 44.5014L32.1374 36.7876C32.1606 36.8109 32.1833 36.8347 32.2057 36.8591L24.1433 44.208ZM22.9099 55.1948C24.3574 49.4048 27.5853 46.8083 30.4536 45.4891L25.8955 35.5779C20.4376 38.088 14.6819 43.1284 12.3265 52.5488L22.9099 55.1948ZM7.18987 53.1414C9.16945 55.121 11.1917 56.5291 12.7128 57.4444C13.4797 57.9059 14.1368 58.2525 14.6227 58.4925C14.8661 58.6128 15.0681 58.707 15.2209 58.7761C15.2974 58.8106 15.3619 58.839 15.4133 58.8612C15.439 58.8724 15.4615 58.8819 15.4806 58.89C15.4901 58.8941 15.4988 58.8978 15.5066 58.901C15.5106 58.9027 15.5142 58.9043 15.5178 58.9057C15.5196 58.9065 15.5212 58.9072 15.5228 58.9079C15.5236 58.9081 15.5249 58.9087 15.5253 58.9088C15.5265 58.9094 15.5276 58.9098 17.6182 53.8718C19.7088 48.8339 19.7099 48.8343 19.711 48.8347C19.7114 48.8349 19.7125 48.8354 19.7133 48.8356C19.7146 48.8363 19.716 48.8369 19.7174 48.8374C19.7201 48.8385 19.7226 48.8396 19.7249 48.8405C19.7294 48.8424 19.7332 48.8439 19.7362 48.8453C19.7423 48.8479 19.7453 48.8491 19.7453 48.8493C19.7456 48.8493 19.7335 48.8448 19.711 48.8347C19.6661 48.8144 19.5788 48.7733 19.4546 48.7119C19.2052 48.5887 18.8157 48.3848 18.3372 48.0969C17.3676 47.5136 16.1041 46.628 14.9037 45.4276L7.18987 53.1414ZM6.45955 42.7132C1.42154 44.8038 1.42202 44.8049 1.42251 44.8061C1.42267 44.8065 1.42318 44.8077 1.42352 44.8085C1.4242 44.8102 1.42491 44.8118 1.42563 44.8136C1.42709 44.8171 1.42865 44.8208 1.4303 44.8248C1.4336 44.8325 1.43726 44.8413 1.4413 44.8508C1.44939 44.8699 1.45899 44.8924 1.47011 44.918C1.49234 44.9694 1.52068 45.0339 1.55525 45.1104C1.62433 45.2633 1.71856 45.4653 1.83881 45.7087C2.07881 46.1945 2.42556 46.8517 2.88696 47.6186C3.80221 49.1396 5.21031 51.1619 7.18987 53.1414L14.9037 45.4276C13.7033 44.2272 12.8178 42.9638 12.2344 41.9941C11.9465 41.5156 11.7427 41.1262 11.6194 40.8768C11.5581 40.7525 11.5175 40.6647 11.4972 40.6199C11.4871 40.5974 11.4821 40.5858 11.4822 40.586C11.4822 40.586 11.4835 40.589 11.4861 40.5952C11.4873 40.5982 11.489 40.602 11.4909 40.6065C11.4918 40.6088 11.4929 40.6113 11.494 40.614C11.4945 40.6154 11.4951 40.6167 11.4957 40.6182C11.496 40.6189 11.4971 40.6194 11.4972 40.6199C11.4977 40.6209 11.4976 40.6226 6.45955 42.7132ZM15.1456 29.1661C13.9188 32.2546 11.342 35.8699 5.13642 37.4216L7.78269 48.0048C17.9851 45.4538 23.0026 38.9366 25.284 33.1935L15.1456 29.1661ZM14.0095 34.0874C15.7496 35.8276 18.045 36.6701 20.3028 36.6337L20.1269 25.7259C20.6876 25.7169 21.2806 25.9309 21.7233 26.3735L14.0095 34.0874ZM12.3301 24.1344C10.7867 27.3397 11.2838 31.3582 14.0069 34.0848L21.7259 26.3761C22.4307 27.0818 22.5296 28.0976 22.159 28.8674L12.3301 24.1344ZM11.6953 29.4592C12.9687 30.7325 14.5559 31.5401 16.2202 31.8584L18.2689 21.1434C18.6923 21.2244 19.0958 21.432 19.4092 21.7454L11.6953 29.4592ZM11.6953 17.1172C8.28748 20.525 8.28748 26.0513 11.6953 29.4592L19.4092 21.7454C20.2616 22.5978 20.2616 23.9786 19.4092 24.831L11.6953 17.1172ZM12.6451 16.311C12.5742 16.3636 12.131 16.6815 11.6953 17.1172L19.4092 24.831C19.2822 24.9579 19.1796 25.0428 19.1359 25.0777C19.1137 25.0955 19.1009 25.1052 19.1047 25.1024C19.1108 25.0977 19.1202 25.0906 19.1535 25.0659L12.6451 16.311ZM12.6705 16.292L12.6438 16.3119L19.1547 25.065L19.1813 25.0452L12.6705 16.292ZM10.5376 23.6733C11.746 24.8817 13.192 25.6136 14.6242 25.9655L17.2276 15.3717C17.539 15.4482 17.9186 15.6264 18.2515 15.9594L10.5376 23.6733ZM10.5376 11.3312C7.12975 14.7391 7.12975 20.2654 10.5376 23.6733L18.2515 15.9594C19.1039 16.8119 19.1039 18.1927 18.2515 19.0451L10.5376 11.3312ZM15.0625 8.93206C13.3981 9.25029 11.811 10.0578 10.5376 11.3312L18.2515 19.0451C17.9381 19.3584 17.5346 19.566 17.1112 19.647L15.0625 8.93206ZM12.8622 6.69661C10.1223 9.42548 9.63092 13.4512 11.1713 16.6538L21.0023 11.9253C21.37 12.6897 21.2768 13.7129 20.5605 14.4262L12.8622 6.69661ZM25.1965 6.70443C21.7886 3.29658 16.2623 3.29656 12.8544 6.70441L20.5683 14.4183C19.7159 15.2707 18.3351 15.2707 17.4826 14.4183L25.1965 6.70443ZM26.0026 7.65414C25.95 7.58326 25.6321 7.14005 25.1965 6.70443L17.4826 14.4183C17.3556 14.2913 17.2709 14.1886 17.2358 14.145C17.2181 14.1228 17.2084 14.1099 17.2113 14.1138C17.2159 14.1199 17.223 14.1293 17.2477 14.1626L26.0026 7.65414ZM26.0216 7.67963L26.0018 7.65299L17.2486 14.1637L17.2684 14.1904L26.0216 7.67963ZM18.6404 5.54669C17.4319 6.75511 16.7001 8.20104 16.3481 9.63331L26.9419 12.2367C26.8654 12.548 26.6872 12.9276 26.3542 13.2606L18.6404 5.54669ZM28.5933 3.86733C25.388 2.32398 21.3696 2.8211 18.643 5.54407L26.3516 13.2632C25.6459 13.968 24.6301 14.0669 23.8604 13.6962L28.5933 3.86733ZM23.2686 3.23259C21.9952 4.50598 21.1875 6.09306 20.8694 7.75742L31.5843 9.8062C31.5033 10.2297 31.2957 10.6331 30.9824 10.9465L23.2686 3.23259ZM35.6106 3.2326C32.2027 -0.175252 26.6764 -0.175268 23.2686 3.23259L30.9824 10.9465C30.13 11.7989 28.7491 11.7989 27.8967 10.9465L35.6106 3.2326ZM38.0076 7.74605C37.6887 6.09758 36.8892 4.51128 35.6106 3.2326L27.8967 10.9465C27.5781 10.6278 27.3758 10.2251 27.297 9.81758L38.0076 7.74605ZM40.2387 5.54668C37.5117 2.81961 33.4894 2.32116 30.2813 3.86949L35.0232 13.6942C34.2506 14.067 33.231 13.9668 32.5249 13.2606L40.2387 5.54668ZM44.8669 5.54669C41.4591 2.13882 35.9328 2.13882 32.5249 5.54669L40.2387 13.2606C39.3863 14.1129 38.0055 14.1129 37.1531 13.2606L44.8669 5.54669ZM47.3903 12.3044C47.5497 9.94164 46.7564 7.43613 44.8669 5.54669L37.1531 13.2606C36.6546 12.762 36.4694 12.1138 36.5061 11.5701L47.3903 12.3044ZM48.3387 9.01851C46.4455 7.12513 43.9403 6.33946 41.5891 6.49456L42.3072 17.3799C41.7751 17.4151 41.1273 17.2349 40.6249 16.7324L48.3387 9.01851ZM50.7357 13.532C50.4169 11.8835 49.6174 10.2972 48.3387 9.01851L40.6249 16.7324C40.3062 16.4137 40.104 16.011 40.0252 15.6035L50.7357 13.532ZM52.9669 11.3326C50.2399 8.60552 46.2176 8.10707 43.0095 9.6554L47.7514 19.4801C46.9788 19.8529 45.9592 19.7527 45.2531 19.0464L52.9669 11.3326ZM52.9669 23.6746C56.3748 20.2668 56.3748 14.7405 52.9669 11.3326L45.2531 19.0464C44.4007 18.194 44.4007 16.8132 45.2531 15.9608L52.9669 23.6746ZM52.0171 24.4808C52.0881 24.4282 52.5314 24.1103 52.9669 23.6746L45.2531 15.9608C45.3801 15.8337 45.4827 15.749 45.5264 15.7141C45.5486 15.6963 45.5614 15.6866 45.5576 15.6894C45.5515 15.6941 45.5421 15.7012 45.5088 15.7259L52.0171 24.4808ZM51.9914 24.5L52.0171 24.4808L45.5088 15.7259L45.4814 15.7463L51.9914 24.5ZM54.1246 17.1185C52.9162 15.9101 51.4703 15.1782 50.0381 14.8263L47.4346 25.4201C47.1233 25.3436 46.7437 25.1654 46.4108 24.8324L54.1246 17.1185ZM55.804 27.0714C57.3473 23.8662 56.8503 19.8477 54.1272 17.1211L46.4082 24.8298C45.7034 24.1241 45.6045 23.1083 45.9751 22.3385L55.804 27.0714ZM56.4387 21.7467C55.1654 20.4734 53.5782 19.6657 51.9139 19.3475L49.8652 30.0624C49.4418 29.9814 49.0383 29.7739 48.7249 29.4605L56.4387 21.7467ZM56.4387 34.0887C59.8466 30.6809 59.8466 25.1546 56.4387 21.7467L48.7249 29.4605C47.8725 28.6081 47.8725 27.2273 48.7249 26.3749L56.4387 34.0887ZM56.4387 38.7169C59.8466 35.309 59.8466 29.7828 56.4387 26.3749L48.7249 34.0887C47.8725 33.2363 47.8725 31.8555 48.7249 31.0031L56.4387 38.7169ZM52.5016 40.9683C53.8514 40.6103 55.2513 39.9045 56.4387 38.7169L48.7249 31.0031C49.0642 30.6637 49.4359 30.4951 49.7056 30.4235L52.5016 40.9683ZM54.1246 41.031C55.3068 39.849 56.0201 38.4489 56.3793 37.0815L45.828 34.3103C45.9036 34.0229 46.0769 33.651 46.4108 33.3172L54.1246 41.031ZM50.0381 43.3233C51.4703 42.9713 52.9162 42.2394 54.1246 41.031L46.4108 33.3172C46.7437 32.9842 47.1233 32.8059 47.4346 32.7294L50.0381 43.3233ZM52.0173 33.6687L51.9916 33.6498L45.4811 42.4029L45.5077 42.4227L52.0173 33.6687ZM52.9669 34.4749C52.5314 34.0394 52.0882 33.7215 52.0173 33.6687L45.5088 42.4235C45.5421 42.4484 45.5515 42.4554 45.5576 42.4599C45.5614 42.4629 45.5486 42.4533 45.5264 42.4354C45.4827 42.4005 45.3801 42.3158 45.2531 42.1889L52.9669 34.4749ZM52.9669 46.8169C56.3748 43.409 56.3748 37.8828 52.9669 34.4749L45.2531 42.1889C44.4007 41.3364 44.4007 39.9555 45.2531 39.1031L52.9669 46.8169Z" fill="white"/>
</g>
</g>
<path id="Vector_5" d="M36.8359 38.6209L29.2732 31.0582L21.7091 23.4955C21.7091 23.4955 22.3295 38.745 6.45955 42.7132C6.45955 42.7132 7.86682 46.1046 11.0468 49.2846C14.2268 52.4646 17.6182 53.8718 17.6182 53.8718C21.5864 38.0005 36.8359 38.6209 36.8359 38.6209Z" fill="#77B255"/>
<path id="Vector_6" d="M24.3136 28.0827C23.3223 33.0423 17.37 40.9773 17.37 40.9773L29.2718 29.0754C33.2386 25.1086 24.3136 28.0827 24.3136 28.0827ZM41.175 37.0091C41.175 37.0091 26.2977 38.0004 17.37 44.9441C28.2805 34.0336 33.24 33.0423 33.24 33.0423L41.175 37.0091Z" fill="#5C913B"/>
<path id="Vector_7" d="M46.5764 43.8982C47.4859 43.9595 48.4145 43.6554 49.11 42.96C50.3877 41.6822 50.3877 39.6095 49.11 38.3318C48.9941 38.2159 48.8645 38.1218 48.7364 38.0263C49.2968 37.8886 49.83 37.6118 50.2677 37.1741C50.6918 36.75 50.9618 36.2359 51.1036 35.6959C51.6436 35.5527 52.1577 35.2841 52.5818 34.86C53.8595 33.5822 53.8595 31.5095 52.5818 30.2318C53.8595 28.9541 53.8595 26.8813 52.5818 25.6036C52.1018 25.1236 51.51 24.8236 50.8895 24.705C51.4759 23.4872 51.2768 21.9859 50.2677 20.9754C49.83 20.5377 49.2968 20.2609 48.7364 20.1232C48.8645 20.0277 48.9941 19.9336 49.11 19.8177C50.3877 18.54 50.3877 16.4672 49.11 15.1895C48.0995 14.1791 46.5982 13.98 45.3805 14.5677C45.2605 13.9472 44.9618 13.3554 44.4818 12.8754C43.7864 12.18 42.8577 11.8772 41.9482 11.9372C42.0095 11.0277 41.7055 10.0991 41.01 9.40361C39.7323 8.12588 37.6595 8.12588 36.3818 9.40361C35.3714 8.39316 33.87 8.19407 32.6523 8.78179C32.5323 8.16134 32.2336 7.56952 31.7536 7.08952C30.4759 5.81179 28.4032 5.81179 27.1255 7.08952C26.6455 7.56952 26.3455 8.16134 26.2268 8.78179C25.0091 8.19543 23.5077 8.39452 22.4973 9.40361C22.0595 9.84134 21.7827 10.3745 21.645 10.935C21.5495 10.8068 21.4555 10.6772 21.3395 10.5613C20.0618 9.28361 17.9891 9.28361 16.7114 10.5613C15.6995 11.5691 15.5005 13.0704 16.0868 14.2895C15.4664 14.4082 14.8745 14.7082 14.3945 15.1882C13.1168 16.4659 13.1168 18.5386 14.3945 19.8163C14.8323 20.2541 15.3655 20.5309 15.9259 20.6686C15.7977 20.7641 15.6682 20.8582 15.5523 20.9741C14.2745 22.2518 14.2745 24.3245 15.5523 25.6022C16.0323 26.0822 16.6241 26.3822 17.2445 26.5009C16.6582 27.7186 16.8573 29.22 17.8664 30.2304C18.8768 31.2409 20.3782 31.44 21.5959 30.8522C21.7159 31.4727 22.0145 32.0645 22.4945 32.5445C22.9323 32.9822 23.4655 33.2591 24.0259 33.3968C23.8977 33.4922 23.7682 33.5863 23.6523 33.7022C22.3745 34.98 22.3745 37.0527 23.6523 38.3304C24.6627 39.3409 26.1641 39.54 27.3818 38.9522C27.5018 39.5727 27.8005 40.1645 28.2805 40.6445C29.1477 41.5118 30.3764 41.7763 31.4782 41.4668C31.5655 41.5813 31.6473 41.6972 31.7523 41.8022C32.4477 42.4977 33.3764 42.8004 34.2859 42.7404C34.2245 43.65 34.5286 44.5786 35.2241 45.2741C36.5018 46.5518 38.5745 46.5518 39.8523 45.2741C39.9682 45.1582 40.0623 45.0286 40.1577 44.9004C40.2955 45.4609 40.5723 45.9941 41.01 46.4318C42.2877 47.7095 44.3605 47.7095 45.6382 46.4318C46.3336 45.7363 46.6364 44.8077 46.5764 43.8982Z" fill="#3E721D"/>
<path id="Vector_8" d="M20.3455 15.3082C21.5075 15.3082 22.4495 14.3662 22.4495 13.2041C22.4495 12.042 21.5075 11.1 20.3455 11.1C19.1834 11.1 18.2414 12.042 18.2414 13.2041C18.2414 14.3662 19.1834 15.3082 20.3455 15.3082Z" fill="#5C913B"/>
<path id="Vector_9" d="M26.2977 15.3082C27.4598 15.3082 28.4018 14.3662 28.4018 13.2041C28.4018 12.042 27.4598 11.1 26.2977 11.1C25.1356 11.1 24.1936 12.042 24.1936 13.2041C24.1936 14.3662 25.1356 15.3082 26.2977 15.3082Z" fill="#5C913B"/>
<path id="Vector_10" d="M30.2645 11.3414C31.4266 11.3414 32.3686 10.3993 32.3686 9.23727C32.3686 8.07521 31.4266 7.13318 30.2645 7.13318C29.1025 7.13318 28.1605 8.07521 28.1605 9.23727C28.1605 10.3993 29.1025 11.3414 30.2645 11.3414Z" fill="#5C913B"/>
<path id="Vector_11" d="M35.2241 14.3168C36.3862 14.3168 37.3282 13.3748 37.3282 12.2127C37.3282 11.0507 36.3862 10.1086 35.2241 10.1086C34.062 10.1086 33.12 11.0507 33.12 12.2127C33.12 13.3748 34.062 14.3168 35.2241 14.3168Z" fill="#5C913B"/>
<path id="Vector_12" d="M39.1909 14.3168C40.353 14.3168 41.295 13.3748 41.295 12.2127C41.295 11.0507 40.353 10.1086 39.1909 10.1086C38.0288 10.1086 37.0868 11.0507 37.0868 12.2127C37.0868 13.3748 38.0288 14.3168 39.1909 14.3168Z" fill="#5C913B"/>
<path id="Vector_13" d="M40.1836 17.2923C41.3457 17.2923 42.2877 16.3503 42.2877 15.1882C42.2877 14.0261 41.3457 13.0841 40.1836 13.0841C39.0215 13.0841 38.0795 14.0261 38.0795 15.1882C38.0795 16.3503 39.0215 17.2923 40.1836 17.2923Z" fill="#5C913B"/>
<path id="Vector_14" d="M43.1591 18.2836C44.3212 18.2836 45.2632 17.3416 45.2632 16.1795C45.2632 15.0174 44.3212 14.0754 43.1591 14.0754C41.997 14.0754 41.055 15.0174 41.055 16.1795C41.055 17.3416 41.997 18.2836 43.1591 18.2836Z" fill="#5C913B"/>
<path id="Vector_15" d="M47.1259 20.2678C48.288 20.2678 49.23 19.3258 49.23 18.1637C49.23 17.0016 48.288 16.0596 47.1259 16.0596C45.9638 16.0596 45.0218 17.0016 45.0218 18.1637C45.0218 19.3258 45.9638 20.2678 47.1259 20.2678Z" fill="#5C913B"/>
<path id="Vector_16" d="M46.1345 23.2432C47.2966 23.2432 48.2386 22.3012 48.2386 21.1391C48.2386 19.977 47.2966 19.035 46.1345 19.035C44.9725 19.035 44.0305 19.977 44.0305 21.1391C44.0305 22.3012 44.9725 23.2432 46.1345 23.2432Z" fill="#5C913B"/>
<path id="Vector_17" d="M49.11 28.2027C50.2721 28.2027 51.2141 27.2607 51.2141 26.0987C51.2141 24.9366 50.2721 23.9946 49.11 23.9946C47.9479 23.9946 47.0059 24.9366 47.0059 26.0987C47.0059 27.2607 47.9479 28.2027 49.11 28.2027Z" fill="#5C913B"/>
<path id="Vector_18" d="M50.1014 33.1623C51.2635 33.1623 52.2055 32.2203 52.2055 31.0582C52.2055 29.8961 51.2635 28.9541 50.1014 28.9541C48.9393 28.9541 47.9973 29.8961 47.9973 31.0582C47.9973 32.2203 48.9393 33.1623 50.1014 33.1623Z" fill="#5C913B"/>
<path id="Vector_19" d="M42.1664 23.2432C43.3285 23.2432 44.2705 22.3012 44.2705 21.1391C44.2705 19.977 43.3285 19.035 42.1664 19.035C41.0043 19.035 40.0623 19.977 40.0623 21.1391C40.0623 22.3012 41.0043 23.2432 42.1664 23.2432Z" fill="#5C913B"/>
<path id="Vector_20" d="M38.1996 19.2764C39.3616 19.2764 40.3036 18.3344 40.3036 17.1723C40.3036 16.0102 39.3616 15.0682 38.1996 15.0682C37.0375 15.0682 36.0955 16.0102 36.0955 17.1723C36.0955 18.3344 37.0375 19.2764 38.1996 19.2764Z" fill="#5C913B"/>
<path id="Vector_21" d="M33.24 16.3009C34.4021 16.3009 35.3441 15.3589 35.3441 14.1968C35.3441 13.0347 34.4021 12.0927 33.24 12.0927C32.0779 12.0927 31.1359 13.0347 31.1359 14.1968C31.1359 15.3589 32.0779 16.3009 33.24 16.3009Z" fill="#5C913B"/>
<path id="Vector_22" d="M27.2891 18.2836C28.4512 18.2836 29.3932 17.3416 29.3932 16.1795C29.3932 15.0174 28.4512 14.0754 27.2891 14.0754C26.127 14.0754 25.185 15.0174 25.185 16.1795C25.185 17.3416 26.127 18.2836 27.2891 18.2836Z" fill="#5C913B"/>
<path id="Vector_23" d="M29.2732 16.3009C30.4353 16.3009 31.3773 15.3589 31.3773 14.1968C31.3773 13.0347 30.4353 12.0927 29.2732 12.0927C28.1111 12.0927 27.1691 13.0347 27.1691 14.1968C27.1691 15.3589 28.1111 16.3009 29.2732 16.3009Z" fill="#5C913B"/>
<path id="Vector_24" d="M23.3209 20.2678C24.483 20.2678 25.425 19.3258 25.425 18.1637C25.425 17.0016 24.483 16.0596 23.3209 16.0596C22.1588 16.0596 21.2168 17.0016 21.2168 18.1637C21.2168 19.3258 22.1588 20.2678 23.3209 20.2678Z" fill="#5C913B"/>
<path id="Vector_25" d="M33.24 22.2518C34.4021 22.2518 35.3441 21.3098 35.3441 20.1477C35.3441 18.9856 34.4021 18.0436 33.24 18.0436C32.0779 18.0436 31.1359 18.9856 31.1359 20.1477C31.1359 21.3098 32.0779 22.2518 33.24 22.2518Z" fill="#5C913B"/>
<path id="Vector_26" d="M40.1836 29.1941C41.3457 29.1941 42.2877 28.2521 42.2877 27.09C42.2877 25.9279 41.3457 24.9859 40.1836 24.9859C39.0215 24.9859 38.0795 25.9279 38.0795 27.09C38.0795 28.2521 39.0215 29.1941 40.1836 29.1941Z" fill="#5C913B"/>
<path id="Vector_27" d="M42.1664 35.1464C43.3285 35.1464 44.2705 34.2044 44.2705 33.0423C44.2705 31.8802 43.3285 30.9382 42.1664 30.9382C41.0043 30.9382 40.0623 31.8802 40.0623 33.0423C40.0623 34.2044 41.0043 35.1464 42.1664 35.1464Z" fill="#5C913B"/>
</g>
<defs>
<clipPath id="clip0_163_61">
<rect width="60" height="60" fill="white"/>
</clipPath>
</defs>
</svg>
