<svg width="60" height="60" viewBox="0 0 60 60" fill="none" xmlns="http://www.w3.org/2000/svg">
<g id="Frame" clip-path="url(#clip0_163_107)">
<path id="Vector" fill-rule="evenodd" clip-rule="evenodd" d="M5.87779 52.5794C5.95461 53.4145 6.05947 53.901 6.06645 53.9329L6.06545 53.9346C6.06545 53.9346 6.08194 53.9381 6.11412 53.9444C6.77642 54.0782 14.2909 55.4421 22.11 50.2623C23.5454 49.3117 25.1363 48.3085 26.803 47.2575L26.805 47.2562L26.8133 47.251C27.3046 46.9413 27.8026 46.6271 28.305 46.3091C32.5338 44.463 35.4417 44.2973 37.8127 44.1622C39.207 44.0828 40.4156 44.014 41.5977 43.62C43.3166 43.0466 43.603 42.1868 43.8893 41.3271C44.1757 40.4673 44.462 39.6075 46.1809 39.0341C49.62 37.8873 54.2045 33.3027 54.2045 31.0105C54.2045 30.0281 53.5729 29.6771 52.9411 29.3261C52.0991 28.8582 51.2569 28.3904 51.9123 26.4259C53.0591 22.9882 54.2045 19.5491 51.9123 17.2568C50.7661 16.1107 49.62 16.1107 48.4739 16.1107C48.0031 16.1107 47.5323 16.1107 47.0615 16.0313L47.0577 16.0241C46.3827 15.9096 45.7091 15.6368 45.0341 14.9632L45.0773 15.8696C44.7314 15.1118 44.365 14.2146 44.1746 13.6926L44.1742 13.6879C44.167 13.6695 44.1599 13.6512 44.1529 13.6328C44.13 13.5688 44.1101 13.5115 44.0939 13.462C43.8893 12.8167 43.8893 12.1714 43.8893 11.5262C43.8893 10.38 43.8893 9.23388 42.7432 8.08774C40.4509 5.79547 37.0118 6.94093 33.5741 8.08774C31.6096 8.74308 31.1414 7.90093 30.6731 7.05873C30.3218 6.42712 29.9705 5.79547 28.9882 5.79547C26.6959 5.79547 22.1114 10.38 20.9645 13.8191C20.3911 15.5387 19.5318 15.825 18.6725 16.1114C17.8132 16.3977 16.9541 16.6841 16.3814 18.4037C15.9874 19.5861 15.9184 20.7947 15.8388 22.1892C15.7034 24.5601 15.5374 27.4679 13.6923 31.6964C13.3721 32.2023 13.0559 32.7036 12.744 33.1983C11.693 34.8649 10.6897 36.456 9.73909 37.8914C5.67068 44.0329 5.63923 49.9864 5.87779 52.5794ZM46.1809 39.0341L44.6528 19.7335C44.8695 19.6249 45.0686 19.5115 45.245 19.3917L46.1809 39.0341Z" fill="#D9D9D9"/>
<g id="Mask group">
<mask id="mask0_163_107" style="mask-type:luminance" maskUnits="userSpaceOnUse" x="0" y="0" width="61" height="61">
<g id="Group">
<path id="Vector_2" d="M60.3423 0.340881H0.342346V60.3409H60.3423V0.340881Z" fill="white"/>
<path id="Vector_3" fill-rule="evenodd" clip-rule="evenodd" d="M5.8778 52.5793C5.95462 53.4144 6.05947 53.901 6.06645 53.9329L6.06546 53.9345C6.06546 53.9345 6.08195 53.938 6.11413 53.9443C6.77643 54.0781 14.2909 55.442 22.11 50.2622C23.5454 49.3116 25.1363 48.3084 26.803 47.2575L26.805 47.2561L26.8133 47.2509C27.3046 46.9412 27.8026 46.627 28.305 46.309C32.5338 44.463 35.4417 44.2973 37.8127 44.1621C39.207 44.0828 40.4156 44.0139 41.5977 43.62C43.3166 43.0465 43.603 42.1868 43.8893 41.327C44.1757 40.4672 44.4621 39.6075 46.1809 39.034C49.62 37.8872 54.2045 33.3027 54.2045 31.0104C54.2045 30.028 53.5729 29.677 52.9411 29.326C52.0991 28.8582 51.2569 28.3903 51.9123 26.4259C53.0591 22.9881 54.2045 19.549 51.9123 17.2568C50.7661 16.1106 49.62 16.1106 48.4739 16.1106C48.0031 16.1106 47.5323 16.1106 47.0615 16.0313L47.0577 16.024C46.3827 15.9095 45.7091 15.6368 45.0341 14.9631L45.0773 15.8695C44.7314 15.1118 44.365 14.2145 44.1746 13.6925L44.1742 13.6879C44.167 13.6695 44.1599 13.6512 44.1529 13.6327C44.13 13.5687 44.1101 13.5114 44.0939 13.4619C43.8893 12.8167 43.8893 12.1714 43.8893 11.5261C43.8893 10.38 43.8893 9.23382 42.7432 8.08768C40.4509 5.79541 37.0118 6.94087 33.5741 8.08768C31.6096 8.74302 31.1414 7.90086 30.6731 7.05867C30.3218 6.42706 29.9705 5.79541 28.9882 5.79541C26.6959 5.79541 22.1114 10.38 20.9646 13.819C20.3911 15.5386 19.5318 15.825 18.6726 16.1113C17.8132 16.3977 16.9541 16.684 16.3814 18.4036C15.9874 19.586 15.9184 20.7946 15.8388 22.1892C15.7034 24.56 15.5374 27.4678 13.6923 31.6963C13.3721 32.2022 13.0559 32.7035 12.744 33.1982C11.693 34.8649 10.6897 36.456 9.7391 37.8913C5.67069 44.0329 5.63924 49.9864 5.8778 52.5793ZM46.1809 39.034L44.6528 19.7334C44.8695 19.6249 45.0686 19.5114 45.245 19.3917L46.1809 39.034Z" fill="black"/>
</g>
</mask>
<g mask="url(#mask0_163_107)">
<path id="Vector_4" d="M42.5208 19.5215L43.4566 39.1639L48.9049 38.9042L47.9692 19.2619L42.5208 19.5215ZM6.06632 53.9329L10.7508 56.7271C11.4611 55.5362 11.6913 54.1194 11.3944 52.7649L6.06632 53.9329ZM6.06532 53.9345L1.38088 51.1403C0.481204 52.6485 0.362765 54.4977 1.06266 56.1083C1.76256 57.719 3.19517 58.8942 4.91162 59.2657L6.06532 53.9345ZM6.11399 53.9443L7.19297 48.5977C7.18352 48.5957 7.17405 48.5938 7.16459 48.5919L6.11399 53.9443ZM26.8028 47.2575L29.7123 51.8712L29.724 51.8638L26.8028 47.2575ZM26.8028 47.2575L23.9002 42.6392C23.894 42.6432 23.8879 42.647 23.8819 42.651L26.8028 47.2575ZM26.8049 47.2561L29.7076 51.8742L29.714 51.8701L26.8049 47.2561ZM26.8132 47.2509L23.9468 42.6102C23.9326 42.6191 23.9183 42.6279 23.9041 42.6369L26.8132 47.2509ZM26.8132 47.2509L29.6798 51.8914C29.6943 51.8825 29.7095 51.8728 29.724 51.8638L26.8132 47.2509ZM28.3049 46.3091L26.1226 41.3101C25.868 41.4212 25.6223 41.5516 25.3876 41.7001L28.3049 46.3091ZM41.5976 43.62L43.3218 48.7948L43.3237 48.7942L41.5976 43.62ZM47.0614 16.0313L42.2384 18.5788C43.0316 20.0806 44.4791 21.1272 46.1539 21.4097L47.0614 16.0313ZM47.0576 16.0241L51.8806 13.4765C51.0882 11.9763 49.6429 10.9303 47.9701 10.6464L47.0576 16.0241ZM45.034 14.9632L48.8871 11.1023C47.2927 9.51117 44.8842 9.06371 42.8247 9.97604C40.7652 10.8884 39.4784 12.9728 39.5855 15.2228L45.034 14.9632ZM45.0772 15.8696L40.1152 18.135C41.201 20.5133 43.822 21.7868 46.3628 21.1704C48.9037 20.5542 50.65 18.2216 50.5255 15.6101L45.0772 15.8696ZM44.1745 13.6925L38.7368 14.1217C38.7755 14.6135 38.881 15.0979 39.05 15.5615L44.1745 13.6925ZM44.1741 13.6879L49.6117 13.2588C49.569 12.7182 49.446 12.1869 49.2466 11.6826L44.1741 13.6879ZM44.1528 13.6328L39.0181 15.4732C39.0273 15.4988 39.0367 15.5243 39.0462 15.5497L44.1528 13.6328ZM44.0937 13.462L38.8942 15.1102C38.9002 15.1291 38.9063 15.1482 38.9126 15.1672L44.0937 13.462ZM13.6921 31.6963L18.3011 34.6136C18.4497 34.3786 18.5802 34.1326 18.6915 33.8777L13.6921 31.6963ZM44.6527 19.7334L42.2112 14.8557C40.2248 15.8501 39.0398 17.9495 39.2152 20.1639L44.6527 19.7334ZM45.2449 19.3917L50.6933 19.1321C50.5994 17.1613 49.4486 15.395 47.6839 14.5127C45.9192 13.6306 43.8157 13.7701 42.1829 14.8777L45.2449 19.3917ZM11.3944 52.7649C11.4286 52.9209 11.3626 52.6592 11.3093 52.0796L0.446042 53.079C0.54639 54.1697 0.690118 54.881 0.738268 55.1007L11.3944 52.7649ZM10.7498 56.7287L10.7508 56.7271L1.38187 51.1385L1.38088 51.1403L10.7498 56.7287ZM7.16459 48.5919C7.16621 48.5923 7.1715 48.5933 7.18053 48.5952C7.18504 48.5962 7.19051 48.5972 7.19692 48.5986C7.20013 48.5993 7.20356 48.6001 7.20726 48.6008C7.2091 48.6012 7.21099 48.6016 7.21296 48.602C7.21394 48.6023 7.21493 48.6024 7.21594 48.6027C7.21645 48.6028 7.21697 48.603 7.21747 48.6031C7.21754 48.6031 7.21879 48.6034 7.21883 48.6034C7.21893 48.6034 7.21903 48.6034 6.06532 53.9345C4.91162 59.2657 4.91152 59.2657 4.91162 59.2657C4.91187 59.2658 4.91293 59.2659 4.9132 59.2659C4.91372 59.2661 4.91426 59.2662 4.91479 59.2663C4.91587 59.2666 4.91696 59.2667 4.91807 59.267C4.92029 59.2676 4.92258 59.268 4.92494 59.2685C4.92964 59.2695 4.93463 59.2706 4.93988 59.2717C4.95038 59.274 4.96198 59.2763 4.97464 59.279C4.99997 59.2842 5.02958 59.2902 5.06339 59.2967L7.16459 48.5919ZM19.0981 45.7145C16.0677 47.7221 13.1267 48.4474 10.8929 48.6676C8.63564 48.8902 7.1544 48.5899 7.19297 48.5977L5.035 59.2912C6.30021 59.5464 15.5497 61.1507 25.1223 54.8096L19.0981 45.7145ZM23.8934 42.6436C22.2393 43.6867 20.5939 44.724 19.0981 45.7145L25.1223 54.8096C26.4971 53.8991 28.0331 52.9302 29.7123 51.8712L23.8934 42.6436ZM23.9021 42.6382L23.9002 42.6392L29.7057 51.8753L29.7076 51.8742L23.9021 42.6382ZM23.9041 42.6369L23.8958 42.6421L29.714 51.8701L29.7224 51.8649L23.9041 42.6369ZM25.3876 41.7001C24.8898 42.0152 24.396 42.3267 23.9041 42.6369L29.724 51.8638C30.2146 51.5544 30.7152 51.2387 31.2221 50.918L25.3876 41.7001ZM37.5022 38.7165C34.907 38.8643 31.2357 39.078 26.1226 41.3101L30.4871 51.308C33.8317 49.848 35.9763 49.7302 38.1228 49.6078L37.5022 38.7165ZM39.8734 38.4451C39.499 38.5699 39.0348 38.6292 37.5022 38.7165L38.1228 49.6078C39.379 49.5364 41.332 49.4578 43.3218 48.7948L39.8734 38.4451ZM38.7142 39.6034C38.5414 40.1221 38.6584 39.6169 39.058 39.1282C39.2767 38.8606 39.5093 38.6686 39.701 38.546C39.8768 38.4335 39.9608 38.4159 39.8715 38.4458L43.3237 48.7942C44.8984 48.2689 46.3726 47.4163 47.5032 46.0336C48.5472 44.7567 48.9506 43.3917 49.0642 43.0507L38.7142 39.6034ZM44.4547 33.8599C42.88 34.3852 41.4059 35.2377 40.2751 36.6204C39.2311 37.8973 38.8278 39.2623 38.7142 39.6034L49.0642 43.0507C49.237 42.5319 49.12 43.0372 48.7204 43.5259C48.5017 43.7934 48.2691 43.9854 48.0773 44.108C47.9016 44.2205 47.8176 44.2381 47.9069 44.2082L44.4547 33.8599ZM48.7499 31.0104C48.7499 30.4282 48.8854 30.0718 48.903 30.0259C48.9297 29.9554 48.9196 30.0027 48.8149 30.1693C48.6018 30.5089 48.204 31.0162 47.6253 31.5949C47.0591 32.1611 46.4195 32.6956 45.7988 33.1216C45.1514 33.566 44.6816 33.7842 44.4547 33.8599L47.9069 44.2082C50.7341 43.2654 53.4428 41.2051 55.3392 39.3087C56.3365 38.3115 57.2999 37.1711 58.0537 35.9705C58.6992 34.9423 59.659 33.1486 59.659 31.0104H48.7499ZM50.2919 34.094C50.4825 34.2 50.4566 34.1887 50.4026 34.1531C50.3291 34.1045 50.0906 33.9417 49.8176 33.6484C49.5241 33.3332 49.226 32.9057 49.0165 32.37C48.809 31.8401 48.7499 31.362 48.7499 31.0104H59.659C59.659 29.1542 58.9882 27.4888 57.8017 26.2145C56.8725 25.2166 55.7497 24.6467 55.5903 24.5581L50.2919 34.094ZM46.738 24.6998C46.1835 26.3615 45.8007 28.7529 47.0969 31.086C48.2156 33.0999 50.1483 34.0142 50.2919 34.094L55.5903 24.5581C55.3177 24.4066 55.443 24.4662 55.6057 24.5882C55.8239 24.7519 56.2694 25.1333 56.6333 25.7884C57.4616 27.2794 56.9854 28.4546 57.0863 28.152L46.738 24.6998ZM48.0552 21.1137C47.946 21.0045 47.8384 20.8226 47.7908 20.654C47.7578 20.537 47.7998 20.5862 47.7697 20.9183C47.7389 21.2566 47.6485 21.7339 47.4612 22.4109C47.2729 23.0918 47.0332 23.8148 46.738 24.6998L57.0863 28.152C57.6055 26.5958 58.4221 24.2374 58.6339 21.9053C58.867 19.3408 58.439 16.0697 55.769 13.3998L48.0552 21.1137ZM48.4737 21.5652C48.6241 21.5652 48.7248 21.5653 48.8183 21.5668C48.9071 21.5682 48.9605 21.5705 48.9931 21.5724C49.0579 21.5765 48.9972 21.5775 48.87 21.5456C48.73 21.5107 48.5556 21.4479 48.3784 21.3482C48.2031 21.2497 48.0963 21.1549 48.0552 21.1137L55.769 13.3998C52.9271 10.5579 49.7009 10.6561 48.4737 10.6561V21.5652ZM46.1539 21.4097C47.1488 21.5776 48.0758 21.5652 48.4737 21.5652V10.6561C48.2193 10.6561 48.0989 10.6553 47.9974 10.651C47.9103 10.6474 47.9138 10.6434 47.9689 10.6527L46.1539 21.4097ZM42.2345 18.5716L42.2384 18.5788L51.8845 13.4837L51.8806 13.4765L42.2345 18.5716ZM41.1809 18.824C42.7451 20.385 44.4882 21.1205 46.1451 21.4017L47.9701 10.6464C48.0537 10.6606 48.2408 10.7037 48.4634 10.8137C48.6892 10.9254 48.8309 11.0464 48.8871 11.1023L41.1809 18.824ZM50.5255 15.6101L50.4824 14.7035L39.5855 15.2228L39.6288 16.1292L50.5255 15.6101ZM39.05 15.5615C39.2954 16.2342 39.7178 17.2643 40.1152 18.135L50.0391 13.6043C49.7446 12.9594 49.4341 12.1948 49.2987 11.8236L39.05 15.5615ZM38.7364 14.117L38.7368 14.1217L49.6121 13.2634L49.6117 13.2588L38.7364 14.117ZM39.0462 15.5497C39.064 15.5972 39.0825 15.6451 39.1015 15.6932L49.2466 11.6826C49.2511 11.694 49.2554 11.7051 49.2593 11.7158L39.0462 15.5497ZM38.9126 15.1672C38.9478 15.2741 38.984 15.3782 39.0181 15.4732L49.2874 11.7923C49.282 11.777 49.2781 11.766 49.2757 11.7592C49.2734 11.7521 49.2732 11.7516 49.2749 11.7567L38.9126 15.1672ZM38.4346 11.5261C38.4346 12.052 38.3951 13.5358 38.8942 15.1102L49.2933 11.8138C49.3504 11.9938 49.3553 12.102 49.3522 12.0631C49.3506 12.0418 49.3477 11.9942 49.3459 11.902C49.3439 11.8037 49.3437 11.6964 49.3437 11.5261H38.4346ZM38.8861 11.9446C38.845 11.9035 38.7502 11.7967 38.6516 11.6215C38.5519 11.4443 38.4892 11.2699 38.4543 11.1298C38.4224 11.0026 38.4233 10.942 38.4274 11.0068C38.4293 11.0393 38.4316 11.0928 38.433 11.1815C38.4345 11.2751 38.4346 11.3757 38.4346 11.5261H49.3437C49.3437 10.2989 49.4419 7.07273 46.6 4.23075L38.8861 11.9446ZM35.3 13.2619C36.185 12.9667 36.908 12.727 37.5889 12.5386C38.266 12.3513 38.7432 12.2609 39.0815 12.2302C39.4136 12.2 39.4628 12.2421 39.3458 12.209C39.1773 12.1615 38.9954 12.0539 38.8861 11.9446L46.6 4.23075C43.9301 1.56085 40.659 1.13289 38.0945 1.36587C35.7625 1.57773 33.404 2.39435 31.8479 2.91348L35.3 13.2619ZM25.9058 9.70953C25.9859 9.85349 26.9006 11.7851 28.9141 12.9033C31.2469 14.1988 33.6378 13.8165 35.3 13.2619L31.8479 2.91348C31.5457 3.01428 32.7202 2.53856 34.2106 3.36622C34.8652 3.72978 35.2465 4.17485 35.4101 4.39278C35.532 4.5553 35.5916 4.68045 35.44 4.40786L25.9058 9.70953ZM28.988 11.25C28.6365 11.25 28.1585 11.1908 27.6288 10.9835C27.0934 10.774 26.666 10.4762 26.3512 10.1831C26.058 9.91028 25.8952 9.67207 25.8466 9.59868C25.811 9.54473 25.7999 9.51889 25.9058 9.70953L35.44 4.40786C35.3512 4.24827 34.7812 3.12605 33.7831 2.19731C32.5091 1.01156 30.8442 0.340881 28.988 0.340881V11.25ZM26.1389 15.5446C26.2145 15.3177 26.4325 14.8485 26.8769 14.201C27.3029 13.5802 27.8374 12.9407 28.4036 12.3745C28.9823 11.7958 29.4896 11.3981 29.8291 11.1849C29.9958 11.0803 30.0431 11.07 29.9726 11.0969C29.9266 11.1144 29.5703 11.25 28.988 11.25V0.340881C26.8499 0.340881 25.0561 1.30056 24.028 1.94611C22.8274 2.69997 21.687 3.66335 20.6898 4.66064C18.7934 6.55696 16.7328 9.26628 15.79 12.0936L26.1389 15.5446ZM20.397 21.2861C20.7379 21.1725 22.103 20.7688 23.3798 19.724C24.762 18.5932 25.6139 17.1189 26.1389 15.5446L15.79 12.0936C15.7601 12.1833 15.7775 12.0996 15.8896 11.9242C16.0121 11.7326 16.204 11.5 16.4714 11.2812C16.9604 10.8811 17.4661 10.7638 16.9478 10.9366L20.397 21.2861ZM21.5561 20.1278C21.5861 20.0381 21.5688 20.1214 21.4564 20.297C21.334 20.4889 21.142 20.7218 20.8743 20.9408C20.3849 21.3414 19.8785 21.4588 20.397 21.2861L16.9478 10.9366C16.607 11.0502 15.2415 11.4539 13.9645 12.4991C12.582 13.6307 11.7306 15.1055 11.2062 16.68L21.5561 20.1278ZM21.2843 22.5002C21.3719 20.9675 21.4312 20.5028 21.5561 20.1278L11.2062 16.68C10.5432 18.6697 10.4647 20.6218 10.393 21.8783L21.2843 22.5002ZM18.6915 33.8777C20.9221 28.7656 21.1361 25.0951 21.2843 22.5002L10.393 21.8783C10.2704 24.0249 10.1523 26.1701 8.6928 29.5149L18.6915 33.8777ZM17.3577 36.1077C17.67 35.6124 17.9836 35.115 18.3011 34.6136L9.08323 28.7791C8.76017 29.2895 8.44161 29.7947 8.13006 30.2888L17.3577 36.1077ZM14.2863 40.9037C15.2768 39.408 16.3145 37.7618 17.3577 36.1077L8.13006 30.2888C7.07113 31.9681 6.10181 33.5047 5.1913 34.8796L14.2863 40.9037ZM11.3093 52.0796C11.1383 50.2219 11.1385 45.6553 14.2863 40.9037L5.1913 34.8796C0.202228 42.411 0.139853 49.7509 0.446042 53.079L11.3093 52.0796ZM39.2152 20.1639L40.7433 39.4646L51.6183 38.6036L50.0902 19.3028L39.2152 20.1639ZM42.1829 14.8777C42.2194 14.853 42.2412 14.8403 42.2442 14.8385C42.2475 14.8367 42.2374 14.8426 42.2112 14.8557L47.0941 24.611C47.4696 24.4231 47.886 24.1912 48.307 23.9056L42.1829 14.8777ZM51.6292 38.7744L50.6933 19.1321L39.7966 19.6512L40.7324 39.2937L51.6292 38.7744Z" fill="white"/>
</g>
</g>
<path id="Vector_5" d="M46.1809 39.0341C49.62 37.8873 54.2045 33.3027 54.2045 31.0105C54.2045 28.7182 50.7655 29.8637 51.9123 26.4259C53.0591 22.9882 54.2045 19.5491 51.9123 17.2568C49.62 14.9646 47.3277 17.2568 45.0355 14.9646C42.7432 12.6723 45.0355 10.38 42.7432 8.08774C40.4509 5.79547 37.0118 6.94093 33.5741 8.08774C30.1364 9.23456 31.2805 5.79547 28.9882 5.79547C26.6959 5.79547 22.1114 10.38 20.9645 13.8191C19.8177 17.2582 17.5268 14.9646 16.3814 18.4037C15.3177 21.5959 16.6227 24.9805 13.6923 31.6964C12.2932 33.9068 10.9718 36.03 9.73909 37.8914C4.31455 46.08 6.06682 53.9346 6.06682 53.9346C6.06682 53.9346 13.9214 55.6868 22.11 50.2623C23.9714 49.0296 26.0945 47.7082 28.305 46.3091C35.0209 43.3773 38.4055 44.6837 41.5977 43.62C45.0355 42.4732 42.7432 40.1809 46.1809 39.0341Z" fill="#5C913B"/>
<path id="Vector_6" d="M52.1632 31.3868C52.0227 30.9614 51.5659 30.7282 51.1405 30.87C46.7632 32.3073 43.3009 31.7932 41.5936 31.3459C45.4268 27.4391 48.8714 23.3796 51.4418 19.6337C51.6955 19.2641 51.6 18.7596 51.2318 18.5059C50.8623 18.2509 50.3577 18.3478 50.1055 18.7159C48.63 20.865 46.8286 23.1491 44.8173 25.4578C44.9291 23.0509 44.7286 19.2996 43.0077 15.5878C42.8182 15.1814 42.3368 15.0055 41.9318 15.1937C41.5255 15.3818 41.3482 15.8632 41.5377 16.2696C43.8273 21.21 43.1659 26.3823 42.9859 27.4991C41.1191 29.5296 39.1173 31.5532 37.0459 33.5018C37.2586 30.9478 37.1605 26.79 34.92 23.4968C34.6705 23.1273 34.1673 23.0291 33.795 23.2814C33.4255 23.5337 33.3286 24.0368 33.5809 24.4078C36.2495 28.3337 35.4177 33.9573 35.1873 35.2146C31.86 38.2146 28.4332 40.9568 25.1918 43.1728C27.285 39.7991 29.4818 34.4864 27.9191 28.3841C27.8073 27.9505 27.3655 27.6873 26.9332 27.8005C26.4995 27.9123 26.2377 28.3528 26.3495 28.7864C28.6391 37.7278 21.8086 45.1323 21.1977 45.7718C13.8245 50.3482 9.78 51.7282 9.73364 51.7432C9.30954 51.885 9.08045 52.3418 9.22227 52.7673C9.33545 53.1068 9.65045 53.3223 9.99 53.3223C10.0745 53.3223 10.1605 53.3087 10.245 53.2814C10.4632 53.2078 15.6941 51.435 25.3214 45.0505C27.1827 43.8164 29.0959 42.4105 31.0159 40.8914C31.9636 41.4723 34.1359 42.4473 38.055 42.4473C39.1514 42.4473 40.3814 42.3696 41.76 42.1882C42.2032 42.1296 42.5155 41.7218 42.4568 41.2787C42.3995 40.8355 41.9809 40.5218 41.5473 40.5818C36.4964 41.2528 33.6695 40.3964 32.3877 39.7896C35.0795 37.5818 37.7564 35.1587 40.2955 32.6509C41.1368 32.9482 42.9164 33.45 45.3886 33.45C47.16 33.45 49.2805 33.1923 51.6505 32.4123C52.0718 32.2691 52.3023 31.8109 52.1632 31.3868Z" fill="#679E44"/>
<path id="Vector_7" d="M22.845 38.6277C23.4668 38.505 24.2209 38.3796 25.0405 38.2446C30.2373 37.3814 35.6114 36.4882 35.6114 33.1596C35.6114 31.4673 34.7059 30.4568 34.11 29.8377C34.4509 29.7341 34.9145 29.6373 35.235 29.5677C36.6941 29.2582 38.5105 28.8723 39.3027 27.2632C39.7923 26.2691 39.7295 25.0705 39.1077 23.67C39.675 23.2514 41.2623 22.7455 42.255 22.4305C44.7041 21.6505 47.0182 20.9127 47.6536 19.0159C47.8759 18.3559 47.9577 17.3114 47.0959 16.0923C47.085 16.0773 47.0686 16.0446 47.0577 16.0241C46.3827 15.9096 45.7091 15.6368 45.0341 14.9632C44.6073 14.5364 44.34 14.1096 44.1723 13.6827C44.4914 14.5623 45.3245 16.5382 45.7036 17.0727C48.4732 20.9891 35.7205 20.5282 37.4891 24.2277C39.5905 28.6214 33.525 27.2359 32.3795 28.9555C31.2327 30.675 33.9082 30.8659 33.9082 33.1582C33.9082 35.4505 26.0727 36.255 22.5164 36.9532C15.3314 38.3673 6.06545 53.9346 6.06545 53.9346C6.06545 53.9346 6.75818 54.0846 7.92409 54.1596C10.7223 49.6268 17.82 39.615 22.845 38.6277Z" fill="#3E721D"/>
<path id="Vector_8" d="M22.5164 36.9559C26.0727 36.2577 33.9082 35.4532 33.9082 33.1609C33.9082 30.8687 31.2341 30.6777 32.3795 28.9582C33.5264 27.2387 39.5905 28.6241 37.4891 24.2305C35.7191 20.5309 48.4732 20.9918 45.7036 17.0755C45.2645 16.455 44.2118 13.8914 44.0605 13.3541C43.5655 11.5991 44.4982 9.84411 42.7418 8.08911C40.4495 5.79684 37.0105 6.94229 33.5727 8.08911C30.135 9.23593 31.2805 5.79547 28.9882 5.79547C26.6959 5.79547 22.1114 10.38 20.9645 13.8191C19.8177 17.2582 17.5268 14.9646 16.3814 18.4037C15.3177 21.5959 16.6227 24.9805 13.6923 31.6964C12.2932 33.9068 10.9718 36.03 9.73909 37.8914C4.31455 46.08 6.06682 53.9346 6.06682 53.9346C6.06682 53.9346 15.3314 38.3673 22.5164 36.9559Z" fill="#77B255"/>
<path id="Vector_9" d="M44.1818 16.7618C40.4686 15.0409 36.7159 14.8404 34.3091 14.9536C36.6177 12.9409 38.9005 11.1395 41.0509 9.66543C41.4205 9.41179 41.5145 8.90725 41.2609 8.5377C41.0073 8.16952 40.5027 8.07543 40.1345 8.3277C36.3886 10.8968 32.3291 14.3427 28.4223 18.1759C27.9736 16.4673 27.4595 13.0063 28.8982 8.62907C29.0386 8.20361 28.8068 7.74543 28.3814 7.60634C27.9586 7.46589 27.4991 7.6977 27.3586 8.12316C25.4959 13.7932 26.6086 18.03 27.1186 19.4795C24.6109 22.0186 22.1877 24.6941 19.98 27.3872C19.3732 26.1054 18.5195 23.2786 19.1891 18.225C19.2477 17.7818 18.9355 17.3741 18.4923 17.3154C18.0559 17.2568 17.6427 17.5663 17.5827 18.0109C16.7468 24.3245 18.1377 27.5441 18.8795 28.755C17.3591 30.675 15.9545 32.5882 14.7205 34.4495C8.33455 44.0768 6.56182 49.3077 6.48955 49.5245C6.34773 49.95 6.57818 50.4068 7.00228 50.5486C7.08682 50.5773 7.17273 50.5895 7.25864 50.5895C7.59818 50.5895 7.91455 50.3754 8.02773 50.0359C8.04273 49.9895 9.42273 45.9463 13.9977 38.5732C14.6291 37.965 22.0186 31.1209 30.9832 33.4213C31.4114 33.5291 31.8586 33.27 31.9691 32.8363C32.0795 32.4027 31.8191 31.9609 31.3841 31.8491C25.2818 30.2891 19.9664 32.4872 16.5914 34.5804C18.8073 31.3377 21.5509 27.9082 24.5523 24.5795C25.8109 24.3491 31.4345 23.52 35.3591 26.1886C35.4995 26.2827 35.6577 26.3291 35.8132 26.3291C36.0723 26.3291 36.3286 26.205 36.4841 25.9745C36.7364 25.605 36.6395 25.1004 36.27 24.8482C32.9755 22.6091 28.8177 22.5109 26.2636 22.7236C28.2109 20.6536 30.2345 18.6518 32.265 16.785C33.375 16.6022 38.535 15.9327 43.4959 18.2318C43.6064 18.2836 43.7223 18.3082 43.8368 18.3082C44.1423 18.3082 44.4341 18.1336 44.5718 17.8377C44.7655 17.4313 44.5882 16.9486 44.1818 16.7618Z" fill="#A6D388"/>
</g>
<defs>
<clipPath id="clip0_163_107">
<rect width="60" height="60" fill="white"/>
</clipPath>
</defs>
</svg>
