<svg width="60" height="60" viewBox="0 0 60 60" fill="none" xmlns="http://www.w3.org/2000/svg">
<g id="Frame">
<path id="Vector" fill-rule="evenodd" clip-rule="evenodd" d="M18.3333 42.439C21.095 42.439 23.3333 40.4737 23.3333 38.0488V10.2439C23.3333 7.81903 21.095 5.85367 18.3333 5.85367C15.5716 5.85367 13.3333 7.81903 13.3333 10.2439V38.0488C13.3333 40.4737 15.5716 42.439 18.3333 42.439ZM23.3333 49.7561C23.3333 52.1808 21.0948 54.1464 18.3333 54.1464C15.5719 54.1464 13.3333 52.1808 13.3333 49.7561C13.3333 47.3314 15.5719 45.3659 18.3333 45.3659C21.0948 45.3659 23.3333 47.3314 23.3333 49.7561ZM41.6666 54.1464C44.4281 54.1464 46.6666 52.1808 46.6666 49.7561C46.6666 47.3314 44.4281 45.3659 41.6666 45.3659C38.9051 45.3659 36.6666 47.3314 36.6666 49.7561C36.6666 52.1808 38.9051 54.1464 41.6666 54.1464ZM41.6666 42.439C44.4266 42.439 46.6666 40.4737 46.6666 38.0488V10.2439C46.6666 7.81903 44.4266 5.85367 41.6666 5.85367C38.9066 5.85367 36.6666 7.81903 36.6666 10.2439V38.0488C36.6666 40.4737 38.9066 42.439 41.6666 42.439Z" fill="#D9D9D9"/>
<g id="Mask group">
<mask id="mask0_165_133" style="mask-type:luminance" maskUnits="userSpaceOnUse" x="6" y="0" width="48" height="60">
<g id="Group">
<path id="Vector_2" d="M53.3333 0H6.66666V60H53.3333V0Z" fill="white"/>
<path id="Vector_3" fill-rule="evenodd" clip-rule="evenodd" d="M18.3333 42.439C21.095 42.439 23.3333 40.4737 23.3333 38.0488V10.2439C23.3333 7.81903 21.095 5.85367 18.3333 5.85367C15.5716 5.85367 13.3333 7.81903 13.3333 10.2439V38.0488C13.3333 40.4737 15.5716 42.439 18.3333 42.439ZM23.3333 49.7561C23.3333 52.1808 21.0948 54.1464 18.3333 54.1464C15.5719 54.1464 13.3333 52.1808 13.3333 49.7561C13.3333 47.3314 15.5719 45.3659 18.3333 45.3659C21.0948 45.3659 23.3333 47.3314 23.3333 49.7561ZM41.6666 54.1464C44.4281 54.1464 46.6666 52.1808 46.6666 49.7561C46.6666 47.3314 44.4281 45.3659 41.6666 45.3659C38.9051 45.3659 36.6666 47.3314 36.6666 49.7561C36.6666 52.1808 38.9051 54.1464 41.6666 54.1464ZM41.6666 42.439C44.4266 42.439 46.6666 40.4737 46.6666 38.0488V10.2439C46.6666 7.81903 44.4266 5.85367 41.6666 5.85367C38.9066 5.85367 36.6666 7.81903 36.6666 10.2439V38.0488C36.6666 40.4737 38.9066 42.439 41.6666 42.439Z" fill="black"/>
</g>
</mask>
<g mask="url(#mask0_165_133)">
<path id="Vector_4" d="M16.6667 38.0488C16.6667 37.2408 17.4132 36.5854 18.3333 36.5854V48.2927C24.7768 48.2927 30 43.7065 30 38.0488H16.6667ZM16.6667 10.2439V38.0488H30V10.2439H16.6667ZM18.3333 11.7073C17.4132 11.7073 16.6667 11.0519 16.6667 10.2439H30C30 4.58614 24.7768 0 18.3333 0V11.7073ZM20 10.2439C20 11.0519 19.2535 11.7073 18.3333 11.7073V0C11.8898 0 6.66666 4.58614 6.66666 10.2439H20ZM20 38.0488V10.2439H6.66666V38.0488H20ZM18.3333 36.5854C19.2535 36.5854 20 37.2408 20 38.0488H6.66666C6.66666 43.7065 11.8898 48.2927 18.3333 48.2927V36.5854ZM18.3333 60C24.7767 60 30 55.4137 30 49.7561H16.6667C16.6667 48.9479 17.4128 48.2927 18.3333 48.2927V60ZM6.66666 49.7561C6.66666 55.4137 11.89 60 18.3333 60V48.2927C19.2538 48.2927 20 48.9479 20 49.7561H6.66666ZM18.3333 39.5122C11.89 39.5122 6.66666 44.0985 6.66666 49.7561H20C20 50.5643 19.2538 51.2195 18.3333 51.2195V39.5122ZM30 49.7561C30 44.0985 24.7767 39.5122 18.3333 39.5122V51.2195C17.4128 51.2195 16.6667 50.5643 16.6667 49.7561H30ZM40 49.7561C40 48.9479 40.7462 48.2927 41.6667 48.2927V60C48.11 60 53.3333 55.4137 53.3333 49.7561H40ZM41.6667 51.2195C40.7462 51.2195 40 50.5643 40 49.7561H53.3333C53.3333 44.0985 48.11 39.5122 41.6667 39.5122V51.2195ZM43.3333 49.7561C43.3333 50.5643 42.5872 51.2195 41.6667 51.2195V39.5122C35.2233 39.5122 30 44.0985 30 49.7561H43.3333ZM41.6667 48.2927C42.5872 48.2927 43.3333 48.9479 43.3333 49.7561H30C30 55.4137 35.2233 60 41.6667 60V48.2927ZM40 38.0488C40 37.2395 40.7462 36.5854 41.6667 36.5854V48.2927C48.1072 48.2927 53.3333 43.7078 53.3333 38.0488H40ZM40 10.2439V38.0488H53.3333V10.2439H40ZM41.6667 11.7073C40.7462 11.7073 40 11.0532 40 10.2439H53.3333C53.3333 4.58486 48.1072 0 41.6667 0V11.7073ZM43.3333 10.2439C43.3333 11.0532 42.5872 11.7073 41.6667 11.7073V0C35.2262 0 30 4.58486 30 10.2439H43.3333ZM43.3333 38.0488V10.2439H30V38.0488H43.3333ZM41.6667 36.5854C42.5872 36.5854 43.3333 37.2395 43.3333 38.0488H30C30 43.7078 35.2262 48.2927 41.6667 48.2927V36.5854Z" fill="white"/>
</g>
</g>
<path id="Vector_5" d="M18.3333 54.1463C21.0948 54.1463 23.3333 52.1808 23.3333 49.7561C23.3333 47.3314 21.0948 45.3658 18.3333 45.3658C15.5719 45.3658 13.3333 47.3314 13.3333 49.7561C13.3333 52.1808 15.5719 54.1463 18.3333 54.1463Z" fill="#BE1931"/>
<path id="Vector_6" d="M23.3333 38.0488C23.3333 40.4737 21.095 42.439 18.3333 42.439C15.5716 42.439 13.3333 40.4737 13.3333 38.0488V10.2439C13.3333 7.81903 15.5716 5.85367 18.3333 5.85367C21.095 5.85367 23.3333 7.81903 23.3333 10.2439V38.0488Z" fill="#BE1931"/>
<path id="Vector_7" d="M41.6667 54.1463C44.4282 54.1463 46.6667 52.1808 46.6667 49.7561C46.6667 47.3314 44.4282 45.3658 41.6667 45.3658C38.9052 45.3658 36.6667 47.3314 36.6667 49.7561C36.6667 52.1808 38.9052 54.1463 41.6667 54.1463Z" fill="#BE1931"/>
<path id="Vector_8" d="M46.6667 38.0488C46.6667 40.4737 44.4267 42.439 41.6667 42.439C38.9067 42.439 36.6667 40.4737 36.6667 38.0488V10.2439C36.6667 7.81903 38.9067 5.85367 41.6667 5.85367C44.4267 5.85367 46.6667 7.81903 46.6667 10.2439V38.0488Z" fill="#BE1931"/>
</g>
</svg>
